<svg xmlns="http://www.w3.org/2000/svg" viewBox="0 0 100 125" x="0px" y="0px">
    <g>
        <path id="liquid"
              d="M37,90 Q50,92 62,90 L62,90 Q50, 92 37,90 Z" fill="lightblue"/>


        <path d="
        M49.43,92.49a38.53,38.53,0,0,1-7.34-.66,20.7,20.7,0,0,1-3.73-1,10.14,10.14,0,0,1-1.51-.71,6,6,0,0,1-1.17-.83,3.58,3.58,0,0,1-.79-1,2.71,2.71,0,0,1-.32-1.13v0
        L28.49,34.5l0-.09
        a3.48,3.48,0,0,1-.14-1,3.4,3.4,0,0,1,0-.45
        s0,0,0-.06
        a3,3,0,0,1,.1-.43
        c.05-.15.11-.29.17-.43
        a3.81,3.81,0,0,1,.33-.55,4,4,0,0,1,.48-.53,4.66,4.66,0,0,1,.49-.39,5.19,5.19,0,0,1,.5-.31l.51-.26
        q.4-.18.81-.33l.2-.07,6.4-11
        A1.76,1.76,0,0,1,38.7,18
        a2.62,2.62,0,0,1,.68-.61,4.82,4.82,0,0,1,.91-.48
        A10.16,10.16,0,0,1,42,16.37
        V9.92a.15.15,0,0,1,0-.07.25.25,0,0,1,0-.08,1.44,1.44,0,0,1,.51-1.08,3,3,0,0,1,.88-.54,8.35,8.35,0,0,1,1.16-.37
        c.44-.1.91-.19,1.44-.26
        a27.79,27.79,0,0,1,7,0
        c.53.07,1,.16,1.44.26
        a8,8,0,0,1,1.16.37,2.76,2.76,0,0,1,.89.54
        h0
        a1.46,1.46,0,0,1,.5,1.08
        v6.6
        a10.16,10.16,0,0,1,1.67.55,5.9,5.9,0,0,1,.91.48,3,3,0,0,1,.68.6,1.88,1.88,0,0,1,.35.67
        l6.4,11,.2.06
        q.41.15.81.33
        l.52.26
        c.16.09.33.2.49.31
        a4.66,4.66,0,0,1,.49.39,3.48,3.48,0,0,1,1,1.5,3.1,3.1,0,0,1,.14,1,3.55,3.55,0,0,1,0,.46
        l-6.21,53.2
        A2.64,2.64,0,0,1,64,88.19
        a3.42,3.42,0,0,1-.77,1,6.22,6.22,0,0,1-1.17.85,10.4,10.4,0,0,1-1.53.73,20.7,20.7,0,0,1-3.73,1,37.88,37.88,0,0,1-7.37.67
        Z
        M36.57,87.07
        a.52.52,0,0,0,.08.25,1.6,1.6,0,0,0,.38.45,4.72,4.72,0,0,0,.81.58,9.21,9.21,0,0,0,1.25.58,19.3,19.3,0,0,0,3.38.94,36.19,36.19,0,0,0,7,.62
        h0
        a36.22,36.22,0,0,0,7-.63,19.05,19.05,0,0,0,3.38-.94,7.43,7.43,0,0,0,1.26-.6,3.94,3.94,0,0,0,.81-.58,1.66,1.66,0,0,0,.36-.45.7.7,0,0,0,.07-.22
        V87s0-.1,0-.15
        l5.86-50.09-.25.12
        q-.41.18-.81.33
        c-.41.15-.83.27-1.24.38s-1,.24-1.43.34-1.07.21-1.61.29-1.18.19-1.78.26
        c-1.1.14-2.22.26-3.45.35
        s-2.72.18-4.13.24
        c-2.64.09-5.46.09-8.1,0-1.41-.06-2.8-.13-4.13-.24
        s-2.35-.21-3.45-.35c-.6-.07-1.19-.16-1.78-.26
        S35,38,34.42,37.92
        s-1-.21-1.43-.34-.83-.23-1.24-.38-.54-.21-.81-.33l-.17-.08
        L36.56,87
        S36.57,87,36.57,87.07
        Z
        M30.45,34
        a1.32,1.32,0,0,0,.12.2,1.84,1.84,0,0,0,.23.25,2.61,2.61,0,0,0,.27.22,2.9,2.9,0,0,0,.33.2,3.24,3.24,0,0,0,.37.19
        q.33.15.66.27
        c.35.12.72.23,1.08.33
        s.88.22,1.31.31,1,.2,1.53.28l1.71.25
        c1.07.13,2.16.24,3.35.34
        s2.67.18,4.05.23c2.6.09,5.37.09,8,0,1.38-.05,2.75-.13,4-.23s2.28-.21,3.35-.34l1.71-.25c.51-.08,1-.17,1.53-.28s.87-.19,1.31-.31.73-.21,1.08-.33.44-.17.65-.27a2.69,2.69,0,0,0,.38-.19,2.9,2.9,0,0,0,.33-.2c.09-.06.18-.14.27-.21a1.86,1.86,0,0,0,.23-.26,1.76,1.76,0,0,0,.14-.23l.06-.16a.85.85,0,0,0,0-.17h0a1.31,1.31,0,0,0,0-.52,1.2,1.2,0,0,0-.2-.39,2.73,2.73,0,0,0-.23-.25l0,0A2.1,2.1,0,0,1,67,33.68a7.2,7.2,0,0,1-1.43.62,17.53,17.53,0,0,1-2,.52,43.78,43.78,0,0,1-4.7.7,103.12,103.12,0,0,1-18.76,0,43.78,43.78,0,0,1-4.7-.7,17.31,17.31,0,0,1-2-.52,7,7,0,0,1-1.44-.62,2.1,2.1,0,0,1-1.08-1.25l0,0a2.73,2.73,0,0,0-.23.25,1,1,0,0,0-.13.23,1.11,1.11,0,0,0-.07.16s0,0,0,.06
        Zm2.47-2h0a4.51,4.51,0,0,0,1,.44,16.2,16.2,0,0,0,1.79.47c1.31.27,2.69.47,4.49.66a100.53,100.53,0,0,0,18.36,0,45,45,0,0,0,4.49-.66,16.2,16.2,0,0,0,1.79-.47,4.51,4.51,0,0,0,1-.44h0L59.49,20.86a5.39,5.39,0,0,1-.81.43,11.63,11.63,0,0,1-1.73.58,32.79,32.79,0,0,1-7.51.79,32.79,32.79,0,0,1-7.51-.79,11.63,11.63,0,0,1-1.73-.58,5.39,5.39,0,0,1-.81-.43Zm7.49-12.83a2.46,2.46,0,0,0,.6.34,8.73,8.73,0,0,0,1.42.47,30.49,30.49,0,0,0,7,.73,30.42,30.42,0,0,0,7-.73,9.42,9.42,0,0,0,1.42-.47,3.05,3.05,0,0,0,.61-.34l-.09-.06a3.85,3.85,0,0,0-.58-.3,10.11,10.11,0,0,0-1.54-.49l-.27.15a5.5,5.5,0,0,1-.61.23c-.24.07-.49.13-.74.18-.51.1-1,.18-1.76.25a33.61,33.61,0,0,1-3.45.16A33.61,33.61,0,0,1,46,19.08c-.69-.07-1.25-.15-1.76-.25q-.37-.07-.75-.18a6.19,6.19,0,0,1-.6-.23l-.27-.15a10.11,10.11,0,0,0-1.54.49,3.85,3.85,0,0,0-.58.3ZM44,16.7l.1,0,.56.14a15.63,15.63,0,0,0,1.57.22c1,.1,2.07.15,3.25.15s2.25,0,3.26-.15a15,15,0,0,0,1.56-.22l.56-.14.1,0V11.6l-.55.15c-.44.1-.91.19-1.44.26a25.31,25.31,0,0,1-3.49.22A25.41,25.41,0,0,1,46,12a14.51,14.51,0,0,1-1.44-.26L44,11.6Zm.86-6.93.16,0c.41.1.83.17,1.24.23a23.08,23.08,0,0,0,3.22.2,23,23,0,0,0,3.22-.2A11.08,11.08,0,0,0,53.9,9.8l.16,0-.16,0c-.41-.1-.82-.17-1.24-.23a26,26,0,0,0-6.44,0c-.41.06-.83.13-1.24.23ZM59.19,82.66h-.12a1,1,0,0,1-.88-1.1l.59-5.29a1,1,0,0,1,1.1-.89,1,1,0,0,1,.88,1.11l-.58,5.29A1,1,0,0,1,59.19,82.66Zm1-9.46h-.11a1,1,0,0,1-.88-1.1l3-27.56a1,1,0,1,1,2,.22L61.23,72.31A1,1,0,0,1,60.23,73.2Z"/>


    </g>

</svg>